<svg width="144" height="36" viewBox="0 0 144 36" fill="none" xmlns="http://www.w3.org/2000/svg">
<path d="M6.10938 18.2969H10.375V24.0312C9.77604 24.2292 9.15625 24.3828 8.51562 24.4922C7.875 24.6016 7.15625 24.6562 6.35938 24.6562C5.19792 24.6562 4.21354 24.4271 3.40625 23.9688C2.60417 23.5052 1.99479 22.8359 1.57812 21.9609C1.16146 21.0807 0.953125 20.0208 0.953125 18.7812C0.953125 17.5885 1.1849 16.5547 1.64844 15.6797C2.11198 14.7995 2.78646 14.1198 3.67188 13.6406C4.55729 13.1562 5.63021 12.9141 6.89062 12.9141C7.51042 12.9141 8.10938 12.9766 8.6875 13.1016C9.27083 13.2214 9.80469 13.388 10.2891 13.6016L9.63281 15.1484C9.2474 14.9661 8.8151 14.8125 8.33594 14.6875C7.85677 14.5625 7.35938 14.5 6.84375 14.5C6.02604 14.5 5.32031 14.6771 4.72656 15.0312C4.13802 15.3854 3.6849 15.8854 3.36719 16.5312C3.04948 17.1719 2.89062 17.9297 2.89062 18.8047C2.89062 19.6536 3.01823 20.3984 3.27344 21.0391C3.52865 21.6797 3.92708 22.1797 4.46875 22.5391C5.01562 22.8932 5.72135 23.0703 6.58594 23.0703C7.01823 23.0703 7.38542 23.0469 7.6875 23C7.98958 22.9531 8.26823 22.901 8.52344 22.8438V19.8984H6.10938V18.2969ZM14.7578 15.8516V24.5H12.9219V15.8516H14.7578ZM13.8516 12.5391C14.1328 12.5391 14.375 12.6146 14.5781 12.7656C14.7865 12.9167 14.8906 13.1771 14.8906 13.5469C14.8906 13.9115 14.7865 14.1719 14.5781 14.3281C14.375 14.4792 14.1328 14.5547 13.8516 14.5547C13.5599 14.5547 13.3125 14.4792 13.1094 14.3281C12.9115 14.1719 12.8125 13.9115 12.8125 13.5469C12.8125 13.1771 12.9115 12.9167 13.1094 12.7656C13.3125 12.6146 13.5599 12.5391 13.8516 12.5391ZM20.6094 23.1719C20.849 23.1719 21.0859 23.151 21.3203 23.1094C21.5547 23.0625 21.7682 23.0078 21.9609 22.9453V24.3359C21.7578 24.4245 21.4948 24.5 21.1719 24.5625C20.849 24.625 20.513 24.6562 20.1641 24.6562C19.6745 24.6562 19.2344 24.5755 18.8438 24.4141C18.4531 24.2474 18.1432 23.9635 17.9141 23.5625C17.6849 23.1615 17.5703 22.6068 17.5703 21.8984V17.25H16.3906V16.4297L17.6562 15.7812L18.2578 13.9297H19.4141V15.8516H21.8906V17.25H19.4141V21.875C19.4141 22.3125 19.5234 22.638 19.7422 22.8516C19.9609 23.0651 20.25 23.1719 20.6094 23.1719ZM32.9141 24.5H31.0469V19.3438H25.7812V24.5H23.9062V13.0781H25.7812V17.75H31.0469V13.0781H32.9141V24.5ZM43.2891 15.8516V24.5H41.8438L41.5938 23.3359H41.4922C41.3099 23.6328 41.0781 23.8802 40.7969 24.0781C40.5156 24.2708 40.2031 24.4141 39.8594 24.5078C39.5156 24.6068 39.1536 24.6562 38.7734 24.6562C38.1224 24.6562 37.5651 24.5469 37.1016 24.3281C36.6432 24.1042 36.2917 23.7604 36.0469 23.2969C35.8021 22.8333 35.6797 22.2344 35.6797 21.5V15.8516H37.5234V21.1562C37.5234 21.8281 37.6589 22.3307 37.9297 22.6641C38.2057 22.9974 38.6328 23.1641 39.2109 23.1641C39.7682 23.1641 40.2109 23.0495 40.5391 22.8203C40.8672 22.5911 41.099 22.2526 41.2344 21.8047C41.375 21.3568 41.4453 20.8073 41.4453 20.1562V15.8516H43.2891ZM47.7578 12.3438V15.2734C47.7578 15.612 47.7474 15.9453 47.7266 16.2734C47.7109 16.5964 47.6953 16.849 47.6797 17.0312H47.7578C47.9922 16.6562 48.3177 16.3411 48.7344 16.0859C49.1562 15.8255 49.6953 15.6953 50.3516 15.6953C51.3776 15.6953 52.2031 16.0729 52.8281 16.8281C53.4531 17.5781 53.7656 18.6901 53.7656 20.1641C53.7656 21.1432 53.6224 21.9661 53.3359 22.6328C53.0495 23.2995 52.6458 23.8047 52.125 24.1484C51.6094 24.487 51.0026 24.6562 50.3047 24.6562C49.6484 24.6562 49.1172 24.5365 48.7109 24.2969C48.3099 24.0521 47.9948 23.7682 47.7656 23.4453H47.6328L47.2969 24.5H45.9219V12.3438H47.7578ZM49.8672 17.1875C49.3464 17.1875 48.9323 17.2917 48.625 17.5C48.3229 17.7083 48.1042 18.0208 47.9688 18.4375C47.8333 18.849 47.763 19.3724 47.7578 20.0078V20.1719C47.7578 21.1354 47.9089 21.8724 48.2109 22.3828C48.5182 22.8932 49.0755 23.1484 49.8828 23.1484C50.5234 23.1484 51.0156 22.8906 51.3594 22.375C51.7031 21.8542 51.875 21.1094 51.875 20.1406C51.875 19.1615 51.7031 18.4245 51.3594 17.9297C51.0208 17.4349 50.5234 17.1875 49.8672 17.1875ZM66.8281 21.3906C66.8281 22.0677 66.6615 22.651 66.3281 23.1406C66 23.6302 65.526 24.0052 64.9062 24.2656C64.2917 24.526 63.5573 24.6562 62.7031 24.6562C62.2865 24.6562 61.888 24.6328 61.5078 24.5859C61.1276 24.5391 60.7682 24.4714 60.4297 24.3828C60.0964 24.2891 59.7917 24.1771 59.5156 24.0469V22.2812C59.9792 22.4844 60.4974 22.6693 61.0703 22.8359C61.6432 22.9974 62.2266 23.0781 62.8203 23.0781C63.3047 23.0781 63.7057 23.0156 64.0234 22.8906C64.3464 22.7604 64.5859 22.5781 64.7422 22.3438C64.8984 22.1042 64.9766 21.8255 64.9766 21.5078C64.9766 21.1693 64.8854 20.8828 64.7031 20.6484C64.5208 20.4141 64.2448 20.2005 63.875 20.0078C63.5104 19.8099 63.0521 19.599 62.5 19.375C62.125 19.224 61.7656 19.0521 61.4219 18.8594C61.0833 18.6667 60.7812 18.4401 60.5156 18.1797C60.25 17.9193 60.0391 17.612 59.8828 17.2578C59.7318 16.8984 59.6562 16.4766 59.6562 15.9922C59.6562 15.3464 59.8099 14.7943 60.1172 14.3359C60.4297 13.8776 60.8672 13.526 61.4297 13.2812C61.9974 13.0365 62.6589 12.9141 63.4141 12.9141C64.013 12.9141 64.5755 12.9766 65.1016 13.1016C65.6328 13.2266 66.1536 13.4036 66.6641 13.6328L66.0703 15.1406C65.6016 14.9479 65.1458 14.7943 64.7031 14.6797C64.2656 14.5651 63.8177 14.5078 63.3594 14.5078C62.9635 14.5078 62.6276 14.5677 62.3516 14.6875C62.0755 14.8073 61.8646 14.9766 61.7188 15.1953C61.5781 15.4089 61.5078 15.6641 61.5078 15.9609C61.5078 16.2943 61.5885 16.5755 61.75 16.8047C61.9167 17.0286 62.1719 17.2344 62.5156 17.4219C62.8646 17.6094 63.3125 17.8177 63.8594 18.0469C64.4896 18.3073 65.0234 18.5807 65.4609 18.8672C65.9036 19.1536 66.2422 19.4974 66.4766 19.8984C66.7109 20.2943 66.8281 20.7917 66.8281 21.3906ZM76.5 20.1562C76.5 20.875 76.4062 21.513 76.2188 22.0703C76.0312 22.6276 75.7578 23.099 75.3984 23.4844C75.0391 23.8646 74.6068 24.1562 74.1016 24.3594C73.5964 24.5573 73.026 24.6562 72.3906 24.6562C71.7969 24.6562 71.2526 24.5573 70.7578 24.3594C70.263 24.1562 69.8333 23.8646 69.4688 23.4844C69.1094 23.099 68.8307 22.6276 68.6328 22.0703C68.4349 21.513 68.3359 20.875 68.3359 20.1562C68.3359 19.2031 68.5 18.3958 68.8281 17.7344C69.1615 17.0677 69.6354 16.5599 70.25 16.2109C70.8646 15.862 71.5964 15.6875 72.4453 15.6875C73.2422 15.6875 73.9453 15.862 74.5547 16.2109C75.1641 16.5599 75.6406 17.0677 75.9844 17.7344C76.3281 18.401 76.5 19.2083 76.5 20.1562ZM70.2266 20.1562C70.2266 20.7865 70.3021 21.3255 70.4531 21.7734C70.6094 22.2214 70.849 22.5651 71.1719 22.8047C71.4948 23.0391 71.9115 23.1562 72.4219 23.1562C72.9323 23.1562 73.349 23.0391 73.6719 22.8047C73.9948 22.5651 74.2318 22.2214 74.3828 21.7734C74.5339 21.3255 74.6094 20.7865 74.6094 20.1562C74.6094 19.526 74.5339 18.9922 74.3828 18.5547C74.2318 18.112 73.9948 17.776 73.6719 17.5469C73.349 17.3125 72.9297 17.1953 72.4141 17.1953C71.6536 17.1953 71.099 17.4505 70.75 17.9609C70.401 18.4714 70.2266 19.2031 70.2266 20.1562ZM86.1484 15.8516V24.5H84.7031L84.4531 23.3359H84.3516C84.1693 23.6328 83.9375 23.8802 83.6562 24.0781C83.375 24.2708 83.0625 24.4141 82.7188 24.5078C82.375 24.6068 82.013 24.6562 81.6328 24.6562C80.9818 24.6562 80.4245 24.5469 79.9609 24.3281C79.5026 24.1042 79.151 23.7604 78.9062 23.2969C78.6615 22.8333 78.5391 22.2344 78.5391 21.5V15.8516H80.3828V21.1562C80.3828 21.8281 80.5182 22.3307 80.7891 22.6641C81.0651 22.9974 81.4922 23.1641 82.0703 23.1641C82.6276 23.1641 83.0703 23.0495 83.3984 22.8203C83.7266 22.5911 83.9583 22.2526 84.0938 21.8047C84.2344 21.3568 84.3047 20.8073 84.3047 20.1562V15.8516H86.1484ZM93.1641 15.6875C93.3099 15.6875 93.4688 15.6953 93.6406 15.7109C93.8125 15.7266 93.9609 15.7474 94.0859 15.7734L93.9141 17.4922C93.8047 17.4609 93.6693 17.4375 93.5078 17.4219C93.3516 17.4062 93.2109 17.3984 93.0859 17.3984C92.7578 17.3984 92.4453 17.4531 92.1484 17.5625C91.8516 17.6667 91.5885 17.8281 91.3594 18.0469C91.1302 18.2604 90.9505 18.5286 90.8203 18.8516C90.6901 19.1745 90.625 19.5495 90.625 19.9766V24.5H88.7812V15.8516H90.2188L90.4688 17.375H90.5547C90.7266 17.0677 90.9401 16.7865 91.1953 16.5312C91.4505 16.276 91.7422 16.0729 92.0703 15.9219C92.4036 15.7656 92.7682 15.6875 93.1641 15.6875ZM99.1719 24.6562C98.3542 24.6562 97.6458 24.4974 97.0469 24.1797C96.4479 23.862 95.987 23.375 95.6641 22.7188C95.3411 22.0625 95.1797 21.2292 95.1797 20.2188C95.1797 19.1667 95.3568 18.3073 95.7109 17.6406C96.0651 16.974 96.5547 16.4818 97.1797 16.1641C97.8099 15.8464 98.5312 15.6875 99.3438 15.6875C99.8594 15.6875 100.326 15.7396 100.742 15.8438C101.164 15.9427 101.521 16.0651 101.812 16.2109L101.266 17.6797C100.948 17.5495 100.622 17.4401 100.289 17.3516C99.9557 17.263 99.6354 17.2188 99.3281 17.2188C98.8229 17.2188 98.401 17.3307 98.0625 17.5547C97.7292 17.7786 97.4792 18.112 97.3125 18.5547C97.151 18.9974 97.0703 19.5469 97.0703 20.2031C97.0703 20.8385 97.1536 21.375 97.3203 21.8125C97.487 22.2448 97.7344 22.5729 98.0625 22.7969C98.3906 23.0156 98.7943 23.125 99.2734 23.125C99.7474 23.125 100.172 23.0677 100.547 22.9531C100.922 22.8385 101.276 22.6901 101.609 22.5078V24.1016C101.281 24.2891 100.93 24.4271 100.555 24.5156C100.18 24.6094 99.7188 24.6562 99.1719 24.6562ZM107.086 15.6875C107.857 15.6875 108.518 15.8464 109.07 16.1641C109.622 16.4818 110.047 16.9323 110.344 17.5156C110.641 18.099 110.789 18.7969 110.789 19.6094V20.5938H105.016C105.036 21.4323 105.26 22.0781 105.688 22.5312C106.12 22.9844 106.724 23.2109 107.5 23.2109C108.052 23.2109 108.547 23.1589 108.984 23.0547C109.427 22.9453 109.883 22.7865 110.352 22.5781V24.0703C109.919 24.2734 109.479 24.4219 109.031 24.5156C108.583 24.6094 108.047 24.6562 107.422 24.6562C106.573 24.6562 105.826 24.4922 105.18 24.1641C104.539 23.8307 104.036 23.3359 103.672 22.6797C103.312 22.0234 103.133 21.2083 103.133 20.2344C103.133 19.2656 103.297 18.4427 103.625 17.7656C103.953 17.0885 104.414 16.5729 105.008 16.2188C105.602 15.8646 106.294 15.6875 107.086 15.6875ZM107.086 17.0703C106.508 17.0703 106.039 17.2578 105.68 17.6328C105.326 18.0078 105.117 18.5573 105.055 19.2812H108.992C108.987 18.849 108.914 18.4661 108.773 18.1328C108.638 17.7995 108.43 17.5391 108.148 17.3516C107.872 17.1641 107.518 17.0703 107.086 17.0703Z" fill="#181818"/>
<path d="M130 12C130.552 12 131 11.5523 131 11C131 10.4477 130.552 10 130 10V12ZM140 20C140 19.4477 139.552 19 139 19C138.448 19 138 19.4477 138 20H140ZM137.908 24.782L137.454 23.891L137.908 24.782ZM138.782 23.908L137.891 23.454L138.782 23.908ZM125.218 23.908L124.327 24.362H124.327L125.218 23.908ZM126.092 24.782L126.546 23.891H126.546L126.092 24.782ZM126.092 11.218L126.546 12.109L126.092 11.218ZM125.218 12.092L126.109 12.546L125.218 12.092ZM139 15C139 15.5523 139.448 16 140 16C140.552 16 141 15.5523 141 15H139ZM140 10H141C141 9.44772 140.552 9 140 9V10ZM135 9C134.448 9 134 9.44772 134 10C134 10.5523 134.448 11 135 11V9ZM132.293 16.2929C131.902 16.6834 131.902 17.3166 132.293 17.7071C132.683 18.0976 133.317 18.0976 133.707 17.7071L132.293 16.2929ZM130 10H128.2V12H130V10ZM124 14.2V21.8H126V14.2H124ZM128.2 26H135.8V24H128.2V26ZM140 21.8V20H138V21.8H140ZM135.8 26C136.344 26 136.811 26.0008 137.195 25.9694C137.59 25.9371 137.983 25.8657 138.362 25.673L137.454 23.891C137.404 23.9162 137.304 23.9539 137.032 23.9761C136.749 23.9992 136.377 24 135.8 24V26ZM138 21.8C138 22.3767 137.999 22.7489 137.976 23.0323C137.954 23.3041 137.916 23.4047 137.891 23.454L139.673 24.362C139.866 23.9835 139.937 23.5902 139.97 23.1949C140.001 22.8113 140 22.3435 140 21.8H138ZM138.362 25.673C138.926 25.3856 139.385 24.927 139.673 24.362L137.891 23.454C137.796 23.6417 137.642 23.7948 137.454 23.891L138.362 25.673ZM124 21.8C124 22.3435 123.999 22.8113 124.031 23.195C124.063 23.5904 124.134 23.9836 124.327 24.362L126.109 23.454C126.084 23.4046 126.046 23.3039 126.024 23.0322C126.001 22.7488 126 22.3765 126 21.8H124ZM128.2 24C127.624 24 127.251 23.9992 126.968 23.9761C126.696 23.9538 126.595 23.9161 126.546 23.891L125.638 25.673C126.016 25.8658 126.41 25.9371 126.805 25.9694C127.189 26.0008 127.657 26 128.2 26V24ZM124.327 24.362C124.615 24.9264 125.073 25.3853 125.638 25.673L126.546 23.891C126.358 23.7952 126.205 23.6424 126.109 23.454L124.327 24.362ZM128.2 10C127.657 10 127.189 9.99922 126.805 10.0306C126.41 10.0629 126.016 10.1342 125.638 10.327L126.546 12.109C126.595 12.0838 126.696 12.0461 126.968 12.0239C127.251 12.0008 127.624 12 128.2 12V10ZM126 14.2C126 13.6234 126.001 13.2511 126.024 12.9678C126.046 12.6962 126.084 12.5955 126.109 12.546L124.327 11.6381C124.134 12.0164 124.063 12.4096 124.031 12.805C123.999 13.1886 124 13.6564 124 14.2H126ZM125.638 10.327C125.073 10.6147 124.614 11.0738 124.327 11.6381L126.109 12.546C126.205 12.3576 126.358 12.2047 126.546 12.109L125.638 10.327ZM141 15V10H139V15H141ZM140 9H135V11H140V9ZM133.707 17.7071L140.707 10.7071L139.293 9.29289L132.293 16.2929L133.707 17.7071Z" fill="#181818"/>
</svg>
