<?xml version="1.0" standalone="no"?>
<!DOCTYPE svg PUBLIC "-//W3C//DTD SVG 20010904//EN"
 "http://www.w3.org/TR/2001/REC-SVG-20010904/DTD/svg10.dtd">
<svg version="1.0" xmlns="http://www.w3.org/2000/svg"
 width="35pt" height="35pt" viewBox="0 0 192.000000 192.000000"
 preserveAspectRatio="xMidYMid meet">

<g transform="translate(0.000000,192.000000) scale(0.100000,-0.100000)"
fill="#000000" stroke="none">
<path d="M847 1674 c-4 -4 -7 -147 -7 -318 0 -180 -4 -317 -10 -326 -8 -12
-29 4 -111 85 -119 116 -129 125 -136 125 -3 0 -36 -30 -74 -67 -50 -48 -69
-74 -69 -93 0 -36 483 -520 520 -520 37 0 520 484 520 520 0 18 -20 45 -68 93
-37 37 -71 67 -76 67 -4 0 -57 -48 -118 -107 -60 -60 -115 -108 -121 -108 -9
0 -13 88 -17 325 l-5 325 -111 3 c-60 1 -113 -1 -117 -4z"/>
<path d="M197 402 c-13 -14 -17 -39 -17 -110 0 -80 2 -93 19 -102 27 -14 1495
-14 1522 0 17 9 19 22 19 105 0 72 -4 97 -16 109 -14 14 -97 16 -763 16 -712
0 -749 -1 -764 -18z"/>
</g>
</svg>
