<svg width="159" height="36" viewBox="0 0 159 36" fill="none" xmlns="http://www.w3.org/2000/svg">
<path d="M54.0576 25L50.9639 14.9189H50.8848C50.8965 15.1592 50.9141 15.5225 50.9375 16.0088C50.9668 16.4893 50.9932 17.002 51.0166 17.5469C51.04 18.0918 51.0518 18.584 51.0518 19.0234V25H48.6172V12.1504H52.3262L55.3672 21.9766H55.4199L58.6455 12.1504H62.3545V25H59.8145V18.918C59.8145 18.5137 59.8203 18.0479 59.832 17.5205C59.8496 16.9932 59.8701 16.4922 59.8936 16.0176C59.917 15.5371 59.9346 15.1768 59.9463 14.9365H59.8672L56.5537 25H54.0576ZM69.5967 17.4414L72.2773 12.1504H75.2129L70.9502 19.999V25H68.2432V20.0869L63.9805 12.1504H66.9336L69.5967 17.4414ZM81.7871 25H79.0625V14.418H75.5732V12.1504H85.2764V14.418H81.7871V25ZM94.6543 25H87.2539V12.1504H94.6543V14.3828H89.9785V17.2041H94.3291V19.4365H89.9785V22.75H94.6543V25ZM97.3438 25V12.1504H100.068V22.75H105.28V25H97.3438ZM114.922 25H107.521V12.1504H114.922V14.3828H110.246V17.2041H114.597V19.4365H110.246V22.75H114.922V25ZM123.069 14.2334C122.548 14.2334 122.085 14.3359 121.681 14.541C121.282 14.7402 120.945 15.0303 120.67 15.4111C120.4 15.792 120.195 16.252 120.055 16.791C119.914 17.3301 119.844 17.9365 119.844 18.6104C119.844 19.5186 119.955 20.2949 120.178 20.9395C120.406 21.5781 120.758 22.0674 121.232 22.4072C121.707 22.7412 122.319 22.9082 123.069 22.9082C123.591 22.9082 124.112 22.8496 124.634 22.7324C125.161 22.6152 125.732 22.4482 126.348 22.2314V24.5166C125.779 24.751 125.22 24.918 124.669 25.0176C124.118 25.123 123.5 25.1758 122.814 25.1758C121.49 25.1758 120.4 24.9033 119.545 24.3584C118.695 23.8076 118.065 23.04 117.655 22.0557C117.245 21.0654 117.04 19.9111 117.04 18.5928C117.04 17.6201 117.172 16.7295 117.436 15.9209C117.699 15.1123 118.086 14.4121 118.596 13.8203C119.105 13.2285 119.735 12.7715 120.485 12.4492C121.235 12.127 122.097 11.9658 123.069 11.9658C123.708 11.9658 124.347 12.0479 124.985 12.2119C125.63 12.3701 126.245 12.5898 126.831 12.8711L125.952 15.0859C125.472 14.8574 124.988 14.6582 124.502 14.4883C124.016 14.3184 123.538 14.2334 123.069 14.2334ZM140.753 18.5576C140.753 19.5479 140.63 20.4502 140.384 21.2646C140.138 22.0732 139.763 22.7705 139.259 23.3564C138.761 23.9424 138.128 24.3936 137.36 24.71C136.593 25.0205 135.685 25.1758 134.636 25.1758C133.587 25.1758 132.679 25.0205 131.911 24.71C131.144 24.3936 130.508 23.9424 130.004 23.3564C129.506 22.7705 129.134 22.0703 128.888 21.2559C128.642 20.4414 128.519 19.5361 128.519 18.54C128.519 17.21 128.735 16.0527 129.169 15.0684C129.608 14.0781 130.282 13.3105 131.19 12.7656C132.099 12.2207 133.253 11.9482 134.653 11.9482C136.048 11.9482 137.193 12.2207 138.09 12.7656C138.992 13.3105 139.66 14.0781 140.094 15.0684C140.533 16.0586 140.753 17.2217 140.753 18.5576ZM131.375 18.5576C131.375 19.4541 131.486 20.2275 131.709 20.8779C131.938 21.5225 132.292 22.0205 132.772 22.3721C133.253 22.7178 133.874 22.8906 134.636 22.8906C135.409 22.8906 136.036 22.7178 136.517 22.3721C136.997 22.0205 137.346 21.5225 137.562 20.8779C137.785 20.2275 137.896 19.4541 137.896 18.5576C137.896 17.21 137.645 16.1494 137.141 15.376C136.637 14.6025 135.808 14.2158 134.653 14.2158C133.886 14.2158 133.259 14.3916 132.772 14.7432C132.292 15.0889 131.938 15.5869 131.709 16.2373C131.486 16.8818 131.375 17.6553 131.375 18.5576ZM148.856 25L145.763 14.9189H145.684C145.695 15.1592 145.713 15.5225 145.736 16.0088C145.766 16.4893 145.792 17.002 145.815 17.5469C145.839 18.0918 145.851 18.584 145.851 19.0234V25H143.416V12.1504H147.125L150.166 21.9766H150.219L153.444 12.1504H157.153V25H154.613V18.918C154.613 18.5137 154.619 18.0479 154.631 17.5205C154.648 16.9932 154.669 16.4922 154.692 16.0176C154.716 15.5371 154.733 15.1768 154.745 14.9365H154.666L151.353 25H148.856Z" fill="#181818"/>
<circle cx="18" cy="18" r="18" fill="url(#paint0_linear_75_51)"/>
<path fill-rule="evenodd" clip-rule="evenodd" d="M17.5317 18.4724C21.5208 22.4604 22.4258 17.8467 24.9656 20.3848C27.4143 22.8328 28.8216 23.3232 25.7192 26.4247C25.3306 26.737 22.8616 30.4943 14.1846 21.8197C5.50652 13.144 9.26158 10.6724 9.57397 10.2839C12.6839 7.17385 13.1659 8.58938 15.6145 11.0373C18.1544 13.5765 13.5427 14.4844 17.5317 18.4724Z" fill="white"/>
<defs>
<linearGradient id="paint0_linear_75_51" x1="-34.5789" y1="39.4468" x2="51.6822" y2="5.83286" gradientUnits="userSpaceOnUse">
<stop stop-color="#8A2387"/>
<stop offset="0.53125" stop-color="#E94057"/>
<stop offset="1" stop-color="#F27121"/>
</linearGradient>
</defs>
</svg>
